<svg width="41" height="40" viewBox="0 0 41 40" fill="none" xmlns="http://www.w3.org/2000/svg">
<path d="M20.3342 3.33301C11.1258 3.33301 3.66748 10.7913 3.66748 19.9997C3.66548 23.4983 4.76515 26.9087 6.8105 29.7471C8.85585 32.5855 11.743 34.7078 15.0625 35.813C15.8958 35.958 16.2092 35.458 16.2092 35.0197C16.2092 34.6247 16.1875 33.313 16.1875 31.9163C12.0008 32.688 10.9175 30.8963 10.5841 29.958C10.3958 29.478 9.58415 27.9997 8.87582 27.603C8.29248 27.2913 7.45915 26.5197 8.85415 26.4997C10.1675 26.478 11.1041 27.708 11.4175 28.208C12.9175 30.728 15.3125 30.0197 16.2708 29.583C16.4175 28.4997 16.8542 27.7713 17.3342 27.3547C13.6258 26.938 9.75082 25.4997 9.75082 19.1247C9.75082 17.3113 10.3958 15.813 11.4592 14.6463C11.2925 14.2297 10.7091 12.5213 11.6258 10.2297C11.6258 10.2297 13.0208 9.79134 16.2092 11.9363C17.566 11.5603 18.9678 11.3714 20.3758 11.3747C21.7925 11.3747 23.2092 11.5613 24.5425 11.9363C27.7308 9.76967 29.1258 10.2297 29.1258 10.2297C30.0425 12.5213 29.4592 14.2297 29.2925 14.6463C30.3542 15.813 31.0008 17.2913 31.0008 19.1247C31.0008 25.5213 27.1058 26.938 23.3975 27.3547C24.0008 27.8747 24.5225 28.8747 24.5225 30.438C24.5225 32.6663 24.5008 34.458 24.5008 35.0213C24.5008 35.458 24.8142 35.978 25.6475 35.8113C28.9556 34.694 31.83 32.5676 33.8663 29.7312C35.9027 26.8948 36.9983 23.4913 36.9992 19.9997C36.9992 10.7913 29.5408 3.33301 20.3325 3.33301" fill="white"/>
</svg>
