<svg width="41" height="40" viewBox="0 0 41 40" fill="none" xmlns="http://www.w3.org/2000/svg">
<g id="mdi:linkedin">
<g id="Group 25">
<path id="Union" fill-rule="evenodd" clip-rule="evenodd" d="M5.63965 7.69434V10.3882V10.3885V13.1409H8.39233V13.1411H5.63965V15.8353H8.39233V15.8355H5.63965V18.5879V18.5882V21.2821H8.39233V21.2822H5.63965V24.0347V24.035V26.7289H8.39233V26.729H5.63965V29.4818H8.39233V29.4819H5.63965V32.1761H8.39233V32.2894H8.39258V34.929H11.0868V32.2894H11.0869V34.929H13.8389H13.8397H16.533V32.2894H16.5332V34.929H19.2859V32.2894H19.2861V34.929H21.9803V32.2894H21.9805V34.929H24.7332V32.2894H24.7334V34.929H27.4276V32.2894H27.4277V34.929H30.1797H30.1805H32.8739V32.2894H32.8742V32.1761H35.6268V29.4819H32.8742V29.4818H35.6268V26.729H32.8742V26.7289H35.6268V24.035V24.0347V21.2822H32.8742V21.2821H35.6268V18.5882V18.5879V15.8355H32.8742V15.8353H35.6268V13.1411H32.8742V13.1409H35.6268V10.3885V10.3882V7.69434H32.8742V7.58074H32.8739V4.94141L30.1805 4.94141H27.4277V7.58074H27.4276V4.94141H24.7334V7.58074H24.7332V4.94141H21.9805V7.58074H21.9803V4.94141H19.2861V7.58074H19.2859V4.94141H16.5332V7.58074H16.533V4.94141H13.8398V4.94141H11.0871V7.58074H11.087V4.94141H8.3928V7.58074H8.39233V7.69434H5.63965ZM12.4905 22.8263V20.1075V20.1071V17.3293H15.2432V20.1071V20.1075V22.8263H12.4905ZM17.9378 20.1071V17.3293H20.6905V20.1071V20.1075V22.8263H17.9378V20.1075V20.1071ZM12.4905 14.61V11.8317H15.2432V14.61H12.4905ZM23.4426 17.3292V17.329H20.6907V14.6099H23.4435V14.6101H26.1368V17.3292H23.4426ZM26.137 20.1071V17.3293H28.8897V20.1071V20.1075V22.8263H26.137V20.1075V20.1071ZM12.4905 25.6046V22.8264H15.2432V25.6046H12.4905ZM12.4905 28.3238V25.6047H15.2432V28.3238H12.4905ZM17.9378 25.6046V22.8264H20.6905V25.6046H17.9378ZM26.137 25.6046V22.8264H28.8897V25.6046H26.137ZM17.9378 28.3238V25.6047H20.6905V28.3238H17.9378ZM26.137 28.3238V25.6047H28.8897V28.3238H26.137Z" fill="white"/>
</g>
</g>
</svg>
