<svg width="261" height="338" viewBox="0 0 261 338" fill="none" xmlns="http://www.w3.org/2000/svg">
<g filter="url(#filter0_d_6_274)">
<path d="M5.5 11.5V23.5V318.5C5.5 324.023 9.97716 328.5 15.5 328.5H245.5C251.023 328.5 255.5 324.023 255.5 318.5V33.5C255.5 27.9772 251.023 23.5 245.5 23.5H194.739C191.739 23.5 188.899 22.1537 186.999 19.8324L175.001 5.16762C173.101 2.84627 170.261 1.5 167.261 1.5H15.5C9.97715 1.5 5.5 5.97715 5.5 11.5Z" fill="white"/>
<path d="M5.5 11.5V23.5V318.5C5.5 324.023 9.97716 328.5 15.5 328.5H245.5C251.023 328.5 255.5 324.023 255.5 318.5V33.5C255.5 27.9772 251.023 23.5 245.5 23.5H194.739C191.739 23.5 188.899 22.1537 186.999 19.8324L175.001 5.16762C173.101 2.84627 170.261 1.5 167.261 1.5H15.5C9.97715 1.5 5.5 5.97715 5.5 11.5Z" stroke="#ECF6FF" stroke-width="2"/>
</g>
<defs>
<filter id="filter0_d_6_274" x="0.5" y="0.5" width="260" height="337" filterUnits="userSpaceOnUse" color-interpolation-filters="sRGB">
<feFlood flood-opacity="0" result="BackgroundImageFix"/>
<feColorMatrix in="SourceAlpha" type="matrix" values="0 0 0 0 0 0 0 0 0 0 0 0 0 0 0 0 0 0 127 0" result="hardAlpha"/>
<feOffset dy="4"/>
<feGaussianBlur stdDeviation="2"/>
<feComposite in2="hardAlpha" operator="out"/>
<feColorMatrix type="matrix" values="0 0 0 0 0 0 0 0 0 0 0 0 0 0 0 0 0 0 0.05 0"/>
<feBlend mode="normal" in2="BackgroundImageFix" result="effect1_dropShadow_6_274"/>
<feBlend mode="normal" in="SourceGraphic" in2="effect1_dropShadow_6_274" result="shape"/>
</filter>
</defs>
</svg>
