<svg width="330" height="463" viewBox="0 0 330 463" fill="none" xmlns="http://www.w3.org/2000/svg">
<path d="M32.0972 160C-23.0206 114.5 17.0972 4 17.0972 4C40.4515 15.6633 49.3309 25.2969 63.0972 44C81.204 36.9028 92.3061 37.6754 113.097 44C126.262 21.1828 135.666 12.8873 155.097 4C179.933 70.06 179.221 104.369 148.097 160L224.097 254C234.303 269.667 250.791 314.4 235.097 368C322.097 368 360.651 438.802 291.097 460C273.944 458.257 270.275 454.66 271.097 445C315.207 420.082 302.155 411.428 208.097 406C186.939 413.35 172.569 414.963 135.097 406C113.324 416.548 102.536 416.789 86.0972 406C70.1523 420.002 59.3977 418.777 38.0972 406C33.5077 397.84 36.9142 392.594 45.0972 383C32.0972 297 30.7155 251.233 32.0972 193V160Z" fill="black" stroke="black" stroke-width="5"/>
<path d="M95.5 128.5C87.3622 123.59 83.2136 123.418 77 130.5C78.2532 134.122 80.3515 135.434 86.5 136.5C91.6463 135.149 93.0451 132.893 95.5 128.5Z" fill="white" stroke="black" stroke-width="3" stroke-linejoin="round"/>
<path d="M50 89C35.36 88.3843 29.6988 92.1981 24.5 107C24.3887 118.396 26.8163 123.492 39 128.5C60.58 129.764 67.432 126.111 64.5 107C61.2238 97.0507 58.1972 92.9294 50 89Z" fill="white"/>
<path d="M119.5 89C108.771 94.6385 105.932 101.634 104.5 118.5C109.094 128.003 114.841 130.444 132 128.5L132.078 128.468C141.857 124.451 147.364 122.189 144.5 104.5C139.006 91.0943 132.843 88.8878 119.5 89Z" fill="white"/>
<path d="M50 89C35.36 88.3843 29.6988 92.1981 24.5 107C24.3887 118.396 26.8163 123.492 39 128.5C60.58 129.764 67.432 126.111 64.5 107C61.2238 97.0507 58.1972 92.9294 50 89Z" stroke="black" stroke-width="3"/>
<path d="M119.5 89C108.771 94.6385 105.932 101.634 104.5 118.5C109.094 128.003 114.841 130.444 132 128.5L132.078 128.468C141.857 124.451 147.364 122.189 144.5 104.5C139.006 91.0943 132.843 88.8878 119.5 89Z" stroke="black" stroke-width="3"/>
<path d="M45.5 97C40.9927 101.152 39.7617 104.309 40 111.5C43.0774 119.691 45.9348 121.856 53 121.5C57.5887 116.254 58.3758 112.58 58.5 105.5C56.5269 99.2767 53.7045 97.3901 45.5 97Z" fill="black"/>
<path d="M122.5 97C118.15 97.2682 116.084 99.1935 113 105.5C112.875 115.998 115.152 119.521 122.5 122.5C127.707 119.665 129.999 117.101 131.5 108.5C129.541 101.055 127.734 98.2294 122.5 97Z" fill="black"/>
<path d="M45.5 97C40.9927 101.152 39.7617 104.309 40 111.5C43.0774 119.691 45.9348 121.856 53 121.5C57.5887 116.254 58.3758 112.58 58.5 105.5C56.5269 99.2767 53.7045 97.3901 45.5 97Z" stroke="black" stroke-width="3" stroke-linejoin="round"/>
<path d="M122.5 97C118.15 97.2682 116.084 99.1935 113 105.5C112.875 115.998 115.152 119.521 122.5 122.5C127.707 119.665 129.999 117.101 131.5 108.5C129.541 101.055 127.734 98.2294 122.5 97Z" stroke="black" stroke-width="3" stroke-linejoin="round"/>
</svg>
